<?xml version="1.0" standalone="no"?>
<!DOCTYPE svg PUBLIC "-//W3C//DTD SVG 20010904//EN"
 "http://www.w3.org/TR/2001/REC-SVG-20010904/DTD/svg10.dtd">
<svg version="1.0" xmlns="http://www.w3.org/2000/svg"
 width="512.000000pt" height="512.000000pt" viewBox="0 0 512.000000 512.000000"
 preserveAspectRatio="xMidYMid meet">
<metadata>
Created by potrace 1.11, written by Peter Selinger 2001-2013
</metadata>
<g transform="translate(0.000000,512.000000) scale(0.100000,-0.100000)"
fill="#000000" stroke="none">
<path d="M2358 5045 c-2 -2 -35 -6 -73 -10 -110 -9 -145 -14 -204 -25 -510
-103 -907 -316 -1276 -685 -222 -221 -378 -442 -505 -710 -53 -113 -143 -383
-165 -495 -21 -110 -22 -115 -30 -180 -4 -30 -9 -66 -12 -80 -9 -46 -11 -464
-2 -540 17 -148 21 -176 40 -270 26 -124 26 -123 44 -189 85 -295 236 -584
441 -841 180 -225 488 -491 714 -616 19 -10 37 -21 40 -24 11 -12 210 -105
291 -136 79 -30 233 -79 284 -90 11 -2 45 -9 75 -15 30 -6 73 -14 95 -19 118
-25 246 -32 510 -27 154 2 291 7 305 11 14 3 68 13 120 22 52 9 105 20 118 25
13 5 36 11 52 14 86 15 433 152 464 182 4 5 11 8 14 8 10 0 171 98 239 145 32
22 67 46 77 53 11 6 27 19 35 27 9 8 43 35 76 59 32 25 113 99 180 165 344
342 590 771 679 1186 49 227 60 326 60 565 1 224 -3 269 -48 530 -11 65 -60
251 -76 290 -5 11 -18 47 -30 80 -30 86 -88 210 -149 320 -57 101 -193 295
-203 289 -7 -4 -8 -3 -4 4 13 21 -251 305 -379 406 -28 22 -54 45 -60 50 -13
14 -106 82 -165 121 -25 17 -47 32 -50 35 -6 7 -100 60 -175 100 -66 35 -258
120 -282 125 -10 2 -38 11 -62 19 -54 20 -214 63 -260 71 -19 3 -37 8 -40 10
-4 2 -45 9 -91 15 -47 6 -96 13 -110 16 -28 6 -496 14 -502 9z"/>
</g>
</svg>
